<svg width="22" height="19" viewBox="0 0 22 19" fill="none" xmlns="http://www.w3.org/2000/svg">
<path d="M19.8 11.13C19.8 13.5897 18.8155 15.8157 17.2227 17.4262L18.7781 19C19.801 17.9676 20.6122 16.7409 21.1651 15.3903C21.7181 14.0397 22.0018 12.5919 22 11.13C22 4.9829 17.0753 0 11 0C4.92471 0 8.91164e-06 4.9829 8.91164e-06 11.13C-0.00183297 12.5919 0.281857 14.0397 0.834777 15.3903C1.3877 16.7409 2.19895 17.9676 3.22191 19L4.77731 17.4262C3.75405 16.3908 2.99894 15.1161 2.57889 13.7149C2.15883 12.3136 2.08678 10.8292 2.36911 9.39314C2.65145 7.95703 3.27947 6.61354 4.19753 5.48166C5.11559 4.34979 6.29536 3.46447 7.63235 2.90412C8.96933 2.34377 10.4223 2.12568 11.8624 2.26919C13.3026 2.41269 14.6856 2.91334 15.8889 3.72681C17.0921 4.54028 18.0786 5.64144 18.7608 6.93277C19.443 8.2241 19.7999 9.66574 19.8 11.13ZM14.6223 5.8911L9.6723 10.8996L11.2277 12.4734L16.1777 7.46488L14.6223 5.8911Z" fill="black"/>
</svg>
