<svg width="26" height="26" viewBox="0 0 26 26" fill="none" xmlns="http://www.w3.org/2000/svg">
<path d="M14.2581 11.7419V1.25806C14.2581 0.924405 14.1255 0.604411 13.8896 0.368478C13.6537 0.132546 13.3337 0 13 0C12.6663 0 12.3463 0.132546 12.1104 0.368478C11.8745 0.604411 11.7419 0.924405 11.7419 1.25806V11.7419H1.25806C0.924405 11.7419 0.604411 11.8745 0.368478 12.1104C0.132546 12.3463 0 12.6663 0 13C0 13.3337 0.132546 13.6537 0.368478 13.8896C0.604411 14.1255 0.924405 14.2581 1.25806 14.2581H11.7419V24.7419C11.7463 25.0742 11.8802 25.3917 12.1152 25.6267C12.3502 25.8617 12.6677 25.9957 13 26C13.3337 26 13.6537 25.8675 13.8896 25.6315C14.1255 25.3956 14.2581 25.0756 14.2581 24.7419V14.2581H24.7419C25.0756 14.2581 25.3956 14.1255 25.6315 13.8896C25.8675 13.6537 26 13.3337 26 13C25.9957 12.6677 25.8617 12.3502 25.6267 12.1152C25.3917 11.8802 25.0742 11.7463 24.7419 11.7419H14.2581Z" fill="#CDFF8D"/>
</svg>
