<svg width="343" height="132" viewBox="0 0 343 132" fill="none" xmlns="http://www.w3.org/2000/svg">
<path d="M23.8548 62.9132C9.24477 62.9132 0.577798 55.5372 0 41.8264C0 41.3058 0.33017 40.9587 0.825426 40.9587H7.1812C7.67646 40.9587 8.00663 41.219 8.08917 41.8264C8.83206 51.0248 12.8766 56.6653 24.1024 56.6653C32.6869 56.6653 38.7125 53.3678 38.7125 45.124C38.7125 27.9422 1.1556 40.438 1.1556 17.4421C1.1556 6.33471 9.57494 0.0867809 22.2865 0.0867809C35.4933 0.0867809 43.665 5.9876 44.9857 18.2231C45.0682 18.8306 44.6555 19.1777 44.1603 19.1777H37.8045C37.3092 19.1777 36.9791 18.9174 36.8965 18.3099C36.3187 10.4132 31.3662 6.33471 22.1214 6.33471C14.1973 6.33471 8.66697 9.63223 8.66697 16.7479C8.66697 32.6281 46.3064 20.3926 46.3064 44.1694C46.3064 56.5785 36.9791 62.9132 23.8548 62.9132Z" fill="#CDFF8D"/>
<path d="M61.0144 30.8926L61.4272 61.0041C61.4272 61.5248 61.097 61.8719 60.6017 61.8719H54.2459C53.7507 61.8719 53.4205 61.5248 53.4205 61.0041L53.8332 30.8926L53.4205 1.99587C53.4205 1.47521 53.7507 1.1281 54.2459 1.1281H60.6017C61.097 1.1281 61.4272 1.47521 61.4272 1.99587L61.0144 30.8926Z" fill="#CDFF8D"/>
<path d="M95.3431 63C79.8251 63 68.847 50.5909 68.847 31.5C68.847 12.1488 79.66 0 95.178 0C108.055 0 116.722 6.94215 119.528 19.5248C119.611 20.1322 119.363 20.4793 118.785 20.4793H112.512C112.017 20.4793 111.687 20.219 111.604 19.6983C109.623 10.8471 103.762 6.24794 95.178 6.24794C84.0348 6.24794 76.771 15.7066 76.771 31.5868C76.771 47.1198 84.2824 56.7521 95.5082 56.7521C106.569 56.7521 112.677 48.8554 112.76 36.4463H95.5082C95.013 36.4463 94.6828 36.0992 94.6828 35.5785V31.3264C94.6828 30.8058 95.013 30.4587 95.5082 30.4587H120.023C120.519 30.4587 120.849 30.8058 120.849 31.5C121.014 51.8058 111.934 63 95.3431 63Z" fill="#CDFF8D"/>
<path d="M166.357 26.2066L166.11 1.99587C166.11 1.47521 166.44 1.1281 166.935 1.1281H173.291C173.786 1.1281 174.116 1.47521 174.116 1.99587L173.786 31.8471L174.116 61.0041C174.116 61.5248 173.786 61.8719 173.291 61.8719H166.935C166.44 61.8719 166.11 61.5248 166.11 61.0041L166.44 32.3678H135.569L135.982 61.0041C135.982 61.5248 135.652 61.8719 135.156 61.8719H128.718C128.223 61.8719 127.893 61.5248 127.893 61.0041L128.305 31.8471L127.893 1.99587C127.893 1.47521 128.223 1.1281 128.718 1.1281H135.156C135.652 1.1281 135.982 1.47521 135.982 1.99587L135.652 26.2066H166.357Z" fill="#CDFF8D"/>
<path d="M203.914 31.7603L204.409 61.0041C204.409 61.5248 204.079 61.8719 203.584 61.8719H196.98C196.485 61.8719 196.155 61.5248 196.155 61.0041L196.65 31.7603L196.237 7.37604H180.389C179.894 7.37604 179.564 7.02893 179.564 6.50827V1.99587C179.564 1.47521 179.894 1.1281 180.389 1.1281H220.175C220.67 1.1281 221 1.47521 221 1.99587V6.50827C221 7.02893 220.67 7.37604 220.175 7.37604H204.326L203.914 31.7603Z" fill="#CDFF8D"/>
<path d="M54.269 124.563H60.825C61.3713 124.563 61.7356 124.905 61.7356 125.418V130.034C61.7356 130.547 61.3713 130.889 60.825 130.889H39.518C36.6953 131.658 33.5994 132 30.4125 132C12.0193 132 0 119.69 0 101.055C0 81.9071 12.0193 69.9396 30.4125 69.9396C48.8057 69.9396 60.9161 81.8216 60.9161 101.055C60.9161 111.142 57.3649 119.349 51.2642 124.734L54.269 124.563ZM8.74132 101.055C8.74132 116.357 17.0274 125.76 30.4125 125.76C43.9798 125.76 52.0837 116.442 52.0837 101.055C52.0837 85.6684 43.9798 76.1798 30.4125 76.1798C16.8452 76.1798 8.74132 85.5829 8.74132 101.055Z" fill="#CDFF8D"/>
<path d="M92.5464 132C76.7939 132 68.781 123.281 68.872 108.236L68.9631 89.3441L68.5989 71.9057C68.5989 71.3928 68.9631 71.0508 69.5094 71.0508H76.7028C77.2491 71.0508 77.6133 71.3928 77.6133 71.9057L77.3402 89.1731L77.4312 108.236C77.4312 118.579 81.7108 125.589 92.5464 125.589C103.655 125.589 108.117 118.579 108.117 108.236V89.2586L107.844 71.9057C107.844 71.3928 108.208 71.0508 108.754 71.0508H115.31C115.857 71.0508 116.221 71.3928 116.221 71.9057L115.948 89.3441V108.236C115.948 123.281 108.299 132 92.5464 132Z" fill="#CDFF8D"/>
<path d="M238.426 124.819C238.972 124.819 239.336 125.161 239.336 125.674V130.034C239.336 130.547 238.972 130.889 238.426 130.889H126.428C125.881 130.889 125.517 130.547 125.517 130.034L125.972 99.944L125.517 71.9057C125.517 71.3928 125.881 71.0508 126.428 71.0508H237.697C238.244 71.0508 238.608 71.3928 238.608 71.9057V76.2653C238.608 76.7782 238.244 77.1201 237.697 77.1201H134.349L133.985 95.9263H235.512C236.058 95.9263 236.423 96.2682 236.423 96.7811V103.125C236.423 103.638 236.058 103.98 235.512 103.98H133.985L134.349 124.819H238.426Z" fill="#CDFF8D"/>
<path d="M271.709 130.889C255.592 130.889 246.032 123.623 245.394 110.117C245.394 109.604 245.759 109.262 246.305 109.262H253.316C253.862 109.262 254.227 109.519 254.318 110.117C255.137 119.178 259.599 124.735 271.982 124.735C281.452 124.735 288.099 121.486 288.099 113.365C288.099 96.4399 246.669 108.749 246.669 86.0965C246.669 75.1547 255.957 69 269.979 69C284.548 69 293.563 74.8128 295.02 86.8659C295.111 87.4642 294.655 87.8062 294.109 87.8062H287.098C286.551 87.8062 286.187 87.5497 286.096 86.9513C285.459 79.1724 279.995 75.1547 269.797 75.1547C261.056 75.1547 254.955 78.4031 254.955 85.4127C254.955 101.056 296.476 89.0029 296.476 112.425C296.476 124.649 286.187 130.889 271.709 130.889Z" fill="#CDFF8D"/>
<path d="M324.152 100.201L324.698 129.009C324.698 129.522 324.334 129.864 323.787 129.864H316.503C315.957 129.864 315.592 129.522 315.592 129.009L316.139 100.201L315.683 76.1805H298.201C297.654 76.1805 297.29 75.8386 297.29 75.3257V70.8806C297.29 70.3677 297.654 70.0258 298.201 70.0258H342.089C342.636 70.0258 343 70.3677 343 70.8806V75.3257C343 75.8386 342.636 76.1805 342.089 76.1805H324.607L324.152 100.201Z" fill="#CDFF8D"/>
</svg>
