<svg width="30" height="79" viewBox="0 0 30 79" fill="none" xmlns="http://www.w3.org/2000/svg">
<path d="M8.53728 71.4826L9.39771 70.973L8.53728 71.4826ZM11.5717 77.9941C12.1067 78.1311 12.6515 77.8084 12.7885 77.2734L15.0214 68.5548C15.1584 68.0198 14.8358 67.475 14.3008 67.338C13.7658 67.2009 13.221 67.5236 13.084 68.0586L11.0992 75.8085L3.3493 73.8237C2.81428 73.6867 2.26948 74.0093 2.13246 74.5443C1.99544 75.0794 2.31808 75.6242 2.8531 75.7612L11.5717 77.9941ZM7.67685 71.9922L10.9594 77.5349L12.6802 76.5158L9.39771 70.973L7.67685 71.9922ZM28.6819 0.812793C2.33806 13.9372 -7.32078 46.6679 7.67685 71.9922L9.39771 70.973C-5.00799 46.6483 4.26963 15.2093 29.5737 2.60294L28.6819 0.812793Z" fill="#CDFF8D"/>
</svg>
