<svg width="214" height="86" viewBox="0 0 214 86" fill="none" xmlns="http://www.w3.org/2000/svg">
<path d="M51.7878 37.9477C42.7309 37.9477 37.3582 33.4986 37 25.2287C37 24.9146 37.2047 24.7052 37.5117 24.7052H41.4517C41.7587 24.7052 41.9634 24.8623 42.0146 25.2287C42.4751 30.7769 44.9824 34.1791 51.9413 34.1791C57.2629 34.1791 60.9982 32.1901 60.9982 27.2176C60.9982 16.854 37.7164 24.3912 37.7164 10.5207C37.7164 3.82094 42.9356 0.052344 50.8156 0.052344C59.0026 0.052344 64.0684 3.61157 64.8871 10.9917C64.9382 11.3581 64.6824 11.5675 64.3754 11.5675H60.4354C60.1284 11.5675 59.9237 11.4105 59.8725 11.0441C59.5143 6.28099 56.4442 3.82094 50.7133 3.82094C45.8011 3.82094 42.3727 5.80992 42.3727 10.1019C42.3727 19.6804 65.7058 12.3003 65.7058 26.6419C65.7058 34.1267 59.9237 37.9477 51.7878 37.9477Z" fill="#D9D9D9"/>
<path d="M74.8234 18.6336L75.0793 36.7961C75.0793 37.1102 74.8746 37.3196 74.5676 37.3196H70.6276C70.3206 37.3196 70.1159 37.1102 70.1159 36.7961L70.3717 18.6336L70.1159 1.20386C70.1159 0.889808 70.3206 0.680441 70.6276 0.680441H74.5676C74.8746 0.680441 75.0793 0.889808 75.0793 1.20386L74.8234 18.6336Z" fill="#D9D9D9"/>
<path d="M96.1041 38C86.4843 38 79.6789 30.5152 79.6789 19C79.6789 7.32783 86.382 0 96.0018 0C103.984 0 109.357 4.18733 111.097 11.7769C111.148 12.1433 110.994 12.3526 110.636 12.3526H106.747C106.44 12.3526 106.236 12.1956 106.184 11.8815C104.956 6.5427 101.323 3.7686 96.0018 3.7686C89.094 3.7686 84.5911 9.47383 84.5911 19.0523C84.5911 28.4215 89.2475 34.2314 96.2064 34.2314C103.063 34.2314 106.85 29.4683 106.901 21.9835H96.2064C95.8994 21.9835 95.6948 21.7741 95.6948 21.4601V18.8953C95.6948 18.5813 95.8994 18.3719 96.2064 18.3719H111.404C111.711 18.3719 111.915 18.5813 111.915 19C112.018 31.2479 106.389 38 96.1041 38Z" fill="#D9D9D9"/>
<path d="M140.127 15.8072L139.973 1.20386C139.973 0.889808 140.178 0.680441 140.485 0.680441H144.425C144.732 0.680441 144.936 0.889808 144.936 1.20386L144.732 19.2094L144.936 36.7961C144.936 37.1102 144.732 37.3196 144.425 37.3196H140.485C140.178 37.3196 139.973 37.1102 139.973 36.7961L140.178 19.5234H121.041L121.296 36.7961C121.296 37.1102 121.092 37.3196 120.785 37.3196H116.794C116.487 37.3196 116.282 37.1102 116.282 36.7961L116.538 19.2094L116.282 1.20386C116.282 0.889808 116.487 0.680441 116.794 0.680441H120.785C121.092 0.680441 121.296 0.889808 121.296 1.20386L121.092 15.8072H140.127Z" fill="#D9D9D9"/>
<path d="M163.408 19.157L163.715 36.7961C163.715 37.1102 163.51 37.3196 163.203 37.3196H159.11C158.803 37.3196 158.598 37.1102 158.598 36.7961L158.905 19.157L158.649 4.44904H148.825C148.518 4.44904 148.313 4.23967 148.313 3.92562V1.20386C148.313 0.889808 148.518 0.680441 148.825 0.680441H173.488C173.795 0.680441 174 0.889808 174 1.20386V3.92562C174 4.23967 173.795 4.44904 173.488 4.44904H163.664L163.408 19.157Z" fill="#D9D9D9"/>
<path d="M33.8588 81.5142H37.9491C38.29 81.5142 38.5172 81.7204 38.5172 82.0298V84.8141C38.5172 85.1235 38.29 85.3297 37.9491 85.3297H24.6556C22.8945 85.7938 20.9629 86 18.9746 86C7.49893 86 0 78.5752 0 67.3349C0 55.7853 7.49893 48.5667 18.9746 48.5667C30.4502 48.5667 38.0059 55.7337 38.0059 67.3349C38.0059 73.4191 35.7904 78.369 31.9841 81.6173L33.8588 81.5142ZM5.45377 67.3349C5.45377 76.5643 10.6235 82.2361 18.9746 82.2361C27.4393 82.2361 32.4954 76.6159 32.4954 67.3349C32.4954 58.0539 27.4393 52.3307 18.9746 52.3307C10.5099 52.3307 5.45377 58.0024 5.45377 67.3349Z" fill="#D9D9D9"/>
<path d="M57.7403 86C47.9122 86 42.9129 80.7408 42.9697 71.6661L43.0265 60.2711L42.7993 49.7526C42.7993 49.4433 43.0265 49.237 43.3674 49.237H47.8554C48.1963 49.237 48.4235 49.4433 48.4235 49.7526L48.2531 60.1679L48.3099 71.6661C48.3099 77.9049 50.9799 82.1329 57.7403 82.1329C64.6712 82.1329 67.4549 77.9049 67.4549 71.6661V60.2195L67.2844 49.7526C67.2844 49.4433 67.5117 49.237 67.8525 49.237H71.9429C72.2837 49.237 72.511 49.4433 72.511 49.7526L72.3405 60.2711V71.6661C72.3405 80.7408 67.5685 86 57.7403 86Z" fill="#D9D9D9"/>
<path d="M148.755 81.6689C149.096 81.6689 149.324 81.8751 149.324 82.1845V84.8141C149.324 85.1235 149.096 85.3297 148.755 85.3297H78.879C78.5382 85.3297 78.3109 85.1235 78.3109 84.8141L78.595 66.6646L78.3109 49.7526C78.3109 49.4433 78.5382 49.237 78.879 49.237H148.301C148.642 49.237 148.869 49.4433 148.869 49.7526V52.3822C148.869 52.6916 148.642 52.8978 148.301 52.8978H83.8215L83.5943 64.2412H146.937C147.278 64.2412 147.506 64.4475 147.506 64.7569V68.5833C147.506 68.8927 147.278 69.0989 146.937 69.0989H83.5943L83.8215 81.6689H148.755Z" fill="#D9D9D9"/>
<path d="M169.521 85.3301C159.466 85.3301 153.501 80.9474 153.103 72.8008C153.103 72.4914 153.33 72.2852 153.671 72.2852H158.046C158.386 72.2852 158.614 72.4399 158.671 72.8008C159.182 78.2663 161.966 81.6177 169.692 81.6177C175.6 81.6177 179.747 79.6584 179.747 74.7601C179.747 64.5511 153.898 71.9758 153.898 58.3122C153.898 51.7124 159.693 48 168.442 48C177.531 48 183.156 51.5061 184.065 58.7762C184.121 59.1372 183.837 59.3434 183.497 59.3434H179.122C178.781 59.3434 178.554 59.1887 178.497 58.8278C178.1 54.1357 174.691 51.7124 168.328 51.7124C162.874 51.7124 159.068 53.6717 159.068 57.8997C159.068 67.3353 184.974 60.0653 184.974 74.1929C184.974 81.5662 178.554 85.3301 169.521 85.3301Z" fill="#D9D9D9"/>
<path d="M202.24 66.8197L202.581 84.1958C202.581 84.5051 202.354 84.7114 202.013 84.7114H197.468C197.127 84.7114 196.9 84.5051 196.9 84.1958L197.241 66.8197L196.957 52.3311H186.049C185.709 52.3311 185.481 52.1249 185.481 51.8155V49.1343C185.481 48.825 185.709 48.6187 186.049 48.6187H213.432C213.773 48.6187 214 48.825 214 49.1343V51.8155C214 52.1249 213.773 52.3311 213.432 52.3311H202.524L202.24 66.8197Z" fill="#D9D9D9"/>
</svg>
